<?xml version="1.0" encoding="UTF-8"?>
<svg xmlns="http://www.w3.org/2000/svg" xmlns:xlink="http://www.w3.org/1999/xlink" viewBox="0 0 2442.09 1137.39">
  <defs>
    <style>
      .cls-1 {
        fill: url(#Degradado_sin_nombre_25);
      }

      .cls-1, .cls-2, .cls-3, .cls-4, .cls-5, .cls-6, .cls-7, .cls-8, .cls-9, .cls-10 {
        stroke-width: 0px;
      }

      .cls-2 {
        fill: #aaa;
      }

      .cls-3 {
        fill: #c9c9c9;
      }

      .cls-11 {
        clip-path: url(#clippath);
      }

      .cls-4, .cls-12, .cls-13 {
        fill: none;
      }

      .cls-5 {
        fill: #e3e3e3;
      }

      .cls-6 {
        fill: #666;
      }

      .cls-7 {
        fill: url(#linear-gradient);
      }

      .cls-7, .cls-9, .cls-13 {
        fill-rule: evenodd;
      }

      .cls-8 {
        fill: #000;
      }

      .cls-14 {
        font-family: Axiforma-Regular, Axiforma;
        font-size: 36px;
      }

      .cls-14, .cls-15 {
        fill: #fff;
      }

      .cls-9 {
        fill: #48525a;
        mix-blend-mode: multiply;
      }

      .cls-16 {
        letter-spacing: 0em;
      }

      .cls-12 {
        stroke: #ff2e2e;
      }

      .cls-12, .cls-13 {
        stroke-miterlimit: 10;
      }

      .cls-17 {
        opacity: .44;
      }

      .cls-13 {
        stroke: #fff;
        stroke-width: 3px;
      }

      .cls-18 {
        letter-spacing: -.02em;
      }

      .cls-19 {
        isolation: isolate;
      }

      .cls-10 {
        fill: #ff2e2e;
      }

      .cls-20 {
        letter-spacing: -.01em;
      }

      .cls-15 {
        font-family: BebasNeueBold, 'Bebas Neue';
        font-size: 75px;
      }
    </style>
    <clipPath id="clippath">
      <rect class="cls-4" x="5.09" y="6.73" width="2437" height="1124"/>
    </clipPath>
    <linearGradient id="Degradado_sin_nombre_25" data-name="Degradado sin nombre 25" x1="704.53" y1="-30.59" x2="725.76" y2="1158.37" gradientUnits="userSpaceOnUse">
      <stop offset="0" stop-color="#000"/>
      <stop offset="1" stop-color="#353535"/>
    </linearGradient>
    <linearGradient id="linear-gradient" x1="2293.39" y1="1003.33" x2="2293.39" y2="948.51" gradientUnits="userSpaceOnUse">
      <stop offset="0" stop-color="#bcbfda"/>
      <stop offset="1" stop-color="#f3fbff"/>
    </linearGradient>
  </defs>
  <g class="cls-19">
    <g id="Layer_2" data-name="Layer 2">
      <g id="Layer_1-2" data-name="Layer 1">
        <g>
          <rect class="cls-4" width="1706.09" height="1137.39"/>
          <g>
            <rect class="cls-8" x="5.09" y="6.73" width="2437" height="1124"/>
            <g class="cls-17">
              <g class="cls-11">
                <path class="cls-1" d="M4028.76,626.02c-269.44,1356.51-1442.72,2364.04-2816.92,2406.18-189.74,5.79-381.98-6.74-569.17-38.06-104.67-17.01-209.81-40.16-311.17-71.59C-714.25,2602.62-1347.06,1502.11-1083.05,430.99-908.06-264.22-238.25-739.74,471.09-663.66c100.37,10.43,200.72,30.77,295.53,65.91,171.71,64.03,325.94,175.88,440.68,319.39,197.55,244.77,273.86,583.13,194.57,888.67-85.31,344.81-445.7,584.63-793.78,525.47-212.51-28.83-385.34-189.14-427.37-401.19-12.07-61.8-12.71-126.33-1.05-188.24,10.49-60.58,37.27-118.38,76.42-165.53,89.99-110,251.11-157.8,383.68-104.26,75.03,31.52,131.84,102.87,145.51,183.45,20.53,105.01-35.11,212.84-145.45,228.51-59.9,10.35-127.67-20.21-146.57-80.69-13.24-37.8-7.58-85.61,24.87-111.69,39.8-34.04,112.22-22.36,116.27,37.22,4.51,31.72-31.51,60.38-59.71,42.51-17.75-10.65-16.66-44.62,7.14-45.4,10.34-1.03,19.51,10.52,14,20.08-2.58,4.27-8.8,6-12.84,2.95-4.2-2.71-2.81-11.41,3.03-10.15-5.69-.67-6.87,6.94-2.75,9.79,9.91,5.93,17.14-8.5,10.5-15.89-9.49-11.58-29.2-1.48-28.63,12.72-.97,13.92,10.36,26.35,24.05,26.86,53.86,1.26,48.41-74.97,4.24-87.6-23.27-7.32-50.19-.83-68.31,15.22-34.75,30.35-30.84,86.59-5.9,121.86,26.96,38.36,73.26,50.13,117.61,42.43,96.45-16.73,140.98-112.38,120.11-203.21-17.39-87.64-93.24-158.33-181.5-168.05-152.68-23.55-306.68,82.79-338.36,235.19-7.02,33.61-9.89,68.79-9.05,103.13,5.35,204.82,156.78,382.98,357.63,416.99,332.46,61.39,664.7-171.36,718.21-508.02,68.52-395.16-140.16-797.65-503.53-963.17-74.91-34.41-155.91-58.01-237.31-70.3C-45.61-588.31-656.92-211.23-838.51,382.93c-59.46,195.27-74.8,403.82-61.86,606.96,46.99,724.53,540.49,1371.97,1226.73,1597.67,107.47,35.96,219.25,60.76,331.29,76.89,133.78,19.12,270.4,28.55,405.43,26.98,1234-11.23,2309.08-923.15,2511.66-2151.34l454.01,85.93ZM1590.27-2287.77c1079.07,607.76,1567.21,1935.16,1159.93,3108.18-44.25,128.47-99.32,254.73-162.47,375.01-53,100.7-114.02,198.22-184.01,287.87-443.23,573.81-1215.3,822.21-1908.23,621.43-194.2-56.5-383.88-141.65-546.21-264.1C-544.45,1467.4-689.84,760.52-390.69,217.55c39.04-72.97,88.52-141.72,146.04-201.06C33.04-271.77,479.78-333.23,825.83-134.52c296.46,164.68,401.47,558.28,231.55,852.5-95.62,171.28-300.27,255.72-488.41,204.39-41.44-11.54-82.01-28.72-118.32-52.01-112.96-71.53-165.07-221.57-123.11-348.92,16.03-50.41,44.41-98.21,88.51-128.38,72.14-51.41,177.41-51.29,247.55,3.97,56.1,44.26,71.38,131.22,33.79,192.47-11.6,19.94-30.28,35.49-51.61,43.91-43.07,16.92-103.2,2.79-121.27-43.71-9.89-25.38-5.08-58.4,15.69-77.02,30-28.53,92.15-4.32,73.63,40.81-5.12,12.8-20.57,19.33-33.24,13.69-16.79-4.88-14.59-35.12,4.47-31.69,7.03.95,10.95,11.13,4.62,15.58-4.06,2.94-10.77-.75-8.22-5.92-3.15,5.1,4.5,9.37,8.46,6.3,4.22-2.8,4.7-9.28,1.59-13.17-7.07-8.46-20.96-3.68-23.5,6.47-7.22,37.14,51.44,37.25,53.5-3.94,3.78-44.77-57.01-60.95-86.41-34.35-24.39,20.48-31.19,57.39-20.74,87.02,13.39,39.58,56.14,61.13,95.94,61.38,62.92,2.57,114.41-51.3,125.02-111.56,22.72-109.85-59.21-199.08-164.28-215.17-129.17-21.44-240.58,58.17-281.12,180.5-53.1,145.21,3.57,319.8,131.01,406.19,53.89,36.98,115.84,62.27,179.69,75.23,218.92,43.26,439.2-66.18,541.88-265.24,173.12-309.78,71.04-732.45-222.27-930.02C661.58-383.75,319.57-426.01,23.97-321.69-148.98-261.56-305.71-153.29-423.67-12.27c-64.94,77.94-117.92,166.12-161.65,257.7-311.24,646.35-93.68,1441.99,496.71,1843.17,911.49,612.79,2154.08,385.79,2807.09-496.76,63.69-85.4,120.91-177.19,172.24-270.6,92.63-166.76,169.43-344.67,228.26-526.41,425.87-1316.33-118.37-2769.14-1294.7-3483.69l-234,401.08ZM-1724.02-1364.86c893.63-783.64,2236.96-830.85,3191.84-127.85,178.94,131.1,342.63,285.76,482.76,458.29,333.15,409.82,466.93,971.25,361.78,1489.81-78.43,402.84-297.41,775.21-609.53,1039.22-287.01,246.54-686.9,347.15-1056.03,270.83-286.67-56.96-551.66-217.48-735.16-446.61-26.88-33.34-52.1-71.07-73.54-108.18-67.26-115.55-106.44-247.69-116.11-381.1-17.71-246.63,71.29-497.74,240.75-677.09C47.49,61.3,149.66-8.44,270.62-40.64c204.76-56.63,435.5,2.34,588.75,150.79,107.05,99.93,161.76,232.97,145.18,380.27-16.54,139.05-101.99,277.5-232.68,333.4-144.1,62.26-344.54-12.11-388.77-170.21-22.96-85.94,13.59-185.48,89.46-232.37,45.43-27.38,105.43-26.96,150.81.58,43.22,25.38,71.43,70.98,59.92,122.18-12.33,60.38-77.93,100.84-129.81,56.62-46.7-36.66,0-119.57,48.19-76.93,9.6,9.71,9.09,26.88-1.18,36.05-9.39,10.39-31.01,3.19-28.46-11.85,1.05-10.24,17.26-13.42,18.01-1.58.06,5.3-7.95,7.62-9.16,1.9.1,2.5,2.97,4.1,5.29,3.52,2.4-.59,4.04-2.96,4.32-5.37-.49-12.75-18.14-10.14-19.78,1.25-3.46,16.97,20.71,25.39,31.59,14.17,16.99-14.08,9.75-41.62-9.22-50.17-51.24-24.26-86.74,50.16-53.38,87.51,31.41,39.97,92.81,40.58,126.91,3.76,33.59-33.29,44.15-86.6,26.15-130.45-28.31-66.12-105.3-103.27-174.96-92.62-71.3,9.66-127.63,67.58-154.95,132.1-64.38,157.73,40.37,306.82,188.79,360.59,289.28,101.56,534.78-187.19,522.53-464.84-3.22-97.38-35.02-193.64-91.01-273.26-67.22-94.47-159.66-171.02-263.46-221.66C418.19-230.94,83.59-151.26-139.37,94.21c-203.13,212.86-304.19,518.11-272.07,811.42,10.77,106.69,39.3,212.67,82.52,310.64,71.6,163.53,188.93,303.21,322.23,419.65,432.68,380.27,1080.57,459.49,1592.96,199.73,236.03-117.36,434.42-301.07,598.04-506.8,444.63-560.6,564.79-1352.29,313.44-2022.99-91.63-250.32-232.98-481.18-408.71-680.55-144.5-167.24-308.76-318.94-486.91-449.27-1083.62-795.52-2581.95-749.84-3621.71,101.6l295.56,357.51ZM-1983.72,2087.92c-447.15-1160.74,16.47-2497.02,1072.58-3139.83,115.39-70.63,237.72-132.62,362.5-184.8,104.57-43.61,213.3-79.63,323.97-103.82,714.28-160.03,1475.15,154.12,1879,767.39,106.46,162.76,193.47,341.74,238.86,531.91,144.39,604.42-190.8,1242.53-764.92,1469.1-76.27,31.2-157.9,52.44-239.77,61.27-396.42,44.02-779.64-195.23-920.63-570.41C-156.42,601.59,11.68,230.86,328.81,113.1c182.07-70.67,393.24-4.45,505.77,155.82,24.11,34.56,43.84,72.85,57.35,112.86,43.4,128.31-10.96,279.2-124.94,351.06-44.25,28.57-96.37,47.2-149.45,42.16-88.13-6.66-169.19-74.29-188.28-161.88-15.23-70.1,28-146.93,95.74-170.02,21.56-7.93,45.79-7.92,67.56-.73,65.34,21.36,100.03,110.05,33.09,152.13-30.74,21.27-78.11.75-79.3-37.8-1.14-28.09,38.49-50.63,54.57-21.46,7.67,11.93-4.18,30.74-18.2,25.64-9.45-2.95-10.53-19.07,1-19.05,4.99.34,7.83,7.49,2.59,9.83,5.66-1.91,2.45-10.11-2.53-10.28-16.83,1.21-8.87,24.28,5.73,21.86,28.73-7.06,14.8-44.9-9.91-45.36-10.18-.64-19.83,4.37-26.9,11.44-36.59,40.36,18.76,96.16,63.63,79.1,33.88-10.73,58.32-45.06,57.34-80.97-2.66-74.17-85.87-125.91-154.42-101.55-38.35,12.3-71.56,39.19-92.38,73.9-68.51,110.78,15.88,254.8,128.28,295.02,116.45,46.59,248.36-13.61,323.46-107.19,71.15-87.04,96.33-209.47,65.33-317.89-18.14-63.08-49.88-122.31-90.9-173.27C711.64,22.63,472.62-34.34,267.53,53.21-61.91,180.9-250.66,572.17-149.59,912.63c86.37,303.59,323.24,555.57,617.08,664.82,171.35,64.61,360.65,81.72,540.8,48.71,99.36-18.41,196-52.39,287.64-94.92,648.85-298.49,984.58-1051.32,783.37-1739.31C1764.49-1265.16,663.12-1887.41-398.58-1626.14c-103.13,24.96-205.3,59-303.97,98.06-176.91,69.1-348.67,156.95-509,259.29-1161.1,741.34-1660.85,2210.27-1206.3,3515.72l434.13-159.01ZM1154.74,3502.95c-1236.02,30.7-2327.7-861-2570.8-2079.3-26.94-133.25-43.44-270.14-49.96-406.04-5.35-113.85-2.19-229.06,12.67-342.11C-1362.32-45.65-823.69-655.52-125.86-838.3c195.69-51.02,401.99-75.08,603.63-53.01,613.67,67.82,1096.46,601.45,1113.8,1222.15,3.33,82.82-4.46,167.37-23.92,247.93-93.08,390.52-446.38,672.62-844.69,679.19-338.42,10.41-627.94-274.39-630.61-614.74-4.48-197.46,130.67-376.38,320.06-427.29,39.42-10.7,80.83-15.98,121.65-15.31,134.59,2.32,257.18,104.92,285.74,237.24,16.75,68.71,7.09,145.28-38.8,200.79-63.24,82.42-204.32,115.94-277.53,28.61-38.17-44.1-52.54-117.83-12-164.97,47.45-58.03,148.15-49.87,152.46,36.02.49,27.34-23.52,51.26-50.57,51.22-34.1,2.26-53.93-53.05-14.44-61.21,13.74-3.23,27.31,14.36,17.8,25.92-5.95,7.96-21.39,3.52-17.47-7.39,2-4.61,9.65-4.88,10.06.88.13-6-8.62-5.75-10.47-1.08-2.21,4.57.65,10.4,5.3,12.15,10.36,3.66,19.9-7.59,16.95-17.62-5.24-23.4-38.58-18.08-45.62,1.48-11.97,31.59,22.28,61.22,52.7,51.05,30.57-6.88,49.59-39.88,43.39-70.25-5.37-40.96-44.28-73.3-85.26-71.28-61.87-.21-116.24,53.84-117.22,116.52-1.49,40.51,12.4,81.07,37.78,112.55,80.33,102.42,243.47,71.21,319.1-21.67,82.96-94.57,71.37-239.93,9.34-342.77-57.25-96.88-163.13-162.19-274.93-169.53-65.08-4.17-131.18,5.85-192.68,27.46C137.41,249.85,3.25,457.04,15.63,681c7.79,355.38,309.49,666.69,661.85,686.19,312.92,20.94,628.58-118.18,830.15-359.61,118.38-140.48,198.46-314.05,228.61-495.92,16.44-100.38,17.41-203.45,8.69-304.68-59.24-715.85-649.04-1288.83-1360.04-1331.11-1094.37-59.6-2048.69,773.28-2164.01,1867.71-11.59,106.16-14.38,214.5-11.28,321.22,4.67,191.01,28.62,383.5,69.96,570.06C-1420.82,2986.02-217.41,3956.85,1156.33,3968.13l-1.6-465.18Z"/>
              </g>
            </g>
          </g>
          <g>
            <polygon class="cls-13" points="2349.89 1015.87 2349.89 940.13 2284.3 902.26 2218.72 940.13 2218.72 1015.87 2284.3 1053.73 2349.89 1015.87"/>
            <g>
              <path class="cls-9" d="M2284.8,1007.02l46.72-27.41v-3.49l-46.72,27.41v3.49h0ZM2255.27,1007.02l29.53-17.32v-3.49l-29.53,17.32v3.49h0Z"/>
              <polygon class="cls-7" points="2255.27 948.51 2284.8 965.83 2284.8 948.51 2331.51 975.92 2284.8 1003.33 2284.8 986 2255.27 1003.33 2255.27 948.51 2255.27 948.51"/>
            </g>
          </g>
          <g>
            <g>
              <path class="cls-2" d="M1387.99,211.62s-7.36-2.01-7.81,7.9c-.44,9.91-.39,24.75,6.33,25.33,6.72.58,9.04-6.21,8.86-17.26-.18-11.04-3.26-14.99-7.38-15.97Z"/>
              <path class="cls-6" d="M1388.2,204.23c-1.06-.37-2.18-.48-3.27-.23-1.46.35-2.73,1.32-3.62,2.53-2.06,2.79-3.93,6.59-4.65,9.93-.86,3.95-1.25,7.28-1.7,11.07-.76,6.38-.46,12.84.34,19.21.4,3.2.89,6.41,1.51,9.58.76,3.88,2.21,7.72,4.09,11.17,1.08,1.99,3.13,6.02,5.86,6.02.13,0,.26-.01.38-.04,6.95-1.38,11.59-10.62,13.05-26.03.64-6.75.92-13.6.03-20.34-.45-3.39-1.21-6.76-2.41-9.96-.75-2-1.32-3.48-2.62-5.7-1.13-1.94-2.25-3.62-3.88-5.25-.87-.87-1.95-1.58-3.1-1.98ZM1393.8,245.29c-1.73,1.76-3.92,2.65-6.52,2.65h0c-.33,0-.67-.02-1.03-.05-8.92-.78-9.4-15.78-8.82-28.76.45-9.94,7.01-10.72,9.01-10.72,1.19,0,2.05.22,2.21.26,6.15,1.47,9.27,7.65,9.46,18.86.15,8.96-1.22,14.6-4.32,17.75Z"/>
              <path class="cls-5" d="M1442.62,289.03c-39.35-.11-51.38-6.19-55.02-9.61-3.67,3.45-15.84,9.59-55.9,9.61-.14,15.12-.82,49.99-.87,54.5-.05,5.53,5.89,28.55,24.07,38.82,18.19,10.27,51.67,10.87,70.48-5.07,18.8-15.94,16.43-44.05,16.65-45.8.19-1.57-2-26.29.6-42.46Z"/>
              <path class="cls-10" d="M1374.77,259.88c-2.02-7.24-2.6-15.11-2.88-22.39-.26-7.06.1-14.26,1.91-21.11,1.43-5.43,3.84-10.73,7.94-14.66.99-.95,1.95-1.54,2.86-1.89v-7.5c-20.18.69-39.22,9.5-39.22,9.5-26.16,13.93-13.9,75.95-13.69,80.59.02.54.03,1.73.02,3.4,42.84-.03,52.21-7.08,53.99-9.05-4.35-1.01-6.94-6.66-8.58-10.31-.95-2.1-1.72-4.31-2.35-6.58Z"/>
              <path class="cls-5" d="M1441.7,222.41c-2.46-16.48-18.49-23.94-42.85-29-3.39-.7-6.86-1.04-10.34-1.11v7.4c1.99.62,3.26,2.06,3.26,2.06,10.98,9.69,12.98,27.18,11.18,46.16-1.67,17.61-6.99,26.11-13.73,28.44v.05c.87,1.25,8.27,9.34,54.02,9.4.16-.73.33-1.44.52-2.11,4.29-15.31.4-44.82-2.05-61.29Z"/>
            </g>
            <g>
              <path class="cls-3" d="M1331.71,285.82c7.16,0,13.38-.21,18.79-.55-.89-17.41-9.17-32.87-21.77-43.29-.7,19.13,2.85,37.96,2.96,40.44.02.54.03,1.73.02,3.4Z"/>
              <path class="cls-3" d="M1427.82,288.66l-.71,62.89c-.22,19.58-14.99,35.61-33.97,37.89,11.9-1.02,23.61-4.84,32.23-12.15,18.8-15.94,16.43-44.05,16.65-45.8.19-1.57-2-26.29.6-42.46-5.45-.02-10.35-.15-14.8-.37Z"/>
              <path class="cls-3" d="M1331.69,289.04c-.14,15.12-.82,49.99-.87,54.5-.05,5.53,5.89,28.55,24.07,38.82,8.62,4.87,20.67,7.56,32.96,7.35-21.2-.34-38.22-17.75-37.98-39.04l.7-62.19c-5.49.34-11.74.55-18.89.55Z"/>
              <path class="cls-3" d="M1443.75,283.7c2.58-9.21,2.2-23.55.96-37.1-9.81,10.17-16.08,23.78-16.81,38.85,4.56.23,9.65.36,15.33.37.16-.73.33-1.44.52-2.11Z"/>
            </g>
          </g>
          <text class="cls-15" transform="translate(1038.94 316.09) scale(.84 1)"><tspan x="0" y="0">INTERACT</tspan></text>
          <g>
            <g>
              <path class="cls-2" d="M1387.99,502.62s-7.36-2.01-7.81,7.9c-.44,9.91-.39,24.75,6.33,25.33,6.72.58,9.04-6.21,8.86-17.26-.18-11.04-3.26-14.99-7.38-15.97Z"/>
              <path class="cls-6" d="M1388.2,495.23c-1.06-.37-2.18-.48-3.27-.23-1.46.35-2.73,1.32-3.62,2.53-2.06,2.79-3.93,6.59-4.65,9.93-.86,3.95-1.25,7.28-1.7,11.07-.76,6.38-.46,12.84.34,19.21.4,3.2.89,6.41,1.51,9.58.76,3.88,2.21,7.72,4.09,11.17,1.08,1.99,3.13,6.02,5.86,6.02.13,0,.26-.01.38-.04,6.95-1.38,11.59-10.62,13.05-26.03.64-6.75.92-13.6.03-20.34-.45-3.39-1.21-6.76-2.41-9.96-.75-2-1.32-3.48-2.62-5.7-1.13-1.94-2.25-3.62-3.88-5.25-.87-.87-1.95-1.58-3.1-1.98ZM1393.8,536.29c-1.73,1.76-3.92,2.65-6.52,2.65h0c-.33,0-.67-.02-1.03-.05-8.92-.78-9.4-15.78-8.82-28.76.45-9.94,7.01-10.72,9.01-10.72,1.19,0,2.05.22,2.21.26,6.15,1.47,9.27,7.65,9.46,18.86.15,8.96-1.22,14.6-4.32,17.75Z"/>
              <path class="cls-5" d="M1442.62,580.03c-39.35-.11-51.38-6.19-55.02-9.61-3.67,3.45-15.84,9.59-55.9,9.61-.14,15.12-.82,49.99-.87,54.5-.05,5.53,5.89,28.55,24.07,38.82,18.19,10.27,51.67,10.87,70.48-5.07,18.8-15.94,16.43-44.05,16.65-45.8.19-1.57-2-26.29.6-42.46Z"/>
              <path class="cls-5" d="M1374.77,550.88c-2.02-7.24-2.6-15.11-2.88-22.39-.26-7.06.1-14.26,1.91-21.11,1.43-5.43,3.84-10.73,7.94-14.66.99-.95,1.95-1.54,2.86-1.89v-7.5c-20.18.69-39.22,9.5-39.22,9.5-26.16,13.93-13.9,75.95-13.69,80.59.02.54.03,1.73.02,3.4,42.84-.03,52.21-7.08,53.99-9.05-4.35-1.01-6.94-6.66-8.58-10.31-.95-2.1-1.72-4.31-2.35-6.58Z"/>
              <path class="cls-10" d="M1441.7,513.41c-2.46-16.48-18.49-23.94-42.85-29-3.39-.7-6.86-1.04-10.34-1.11v7.4c1.99.62,3.26,2.06,3.26,2.06,10.98,9.69,12.98,27.18,11.18,46.16-1.67,17.61-6.99,26.11-13.73,28.44v.05c.87,1.25,8.27,9.34,54.02,9.4.16-.73.33-1.44.52-2.11,4.29-15.31.4-44.82-2.05-61.29Z"/>
            </g>
            <g>
              <path class="cls-3" d="M1331.71,576.82c7.16,0,13.38-.21,18.79-.55-.89-17.41-9.17-32.87-21.77-43.29-.7,19.13,2.85,37.96,2.96,40.44.02.54.03,1.73.02,3.4Z"/>
              <path class="cls-3" d="M1427.82,579.66l-.71,62.89c-.22,19.58-14.99,35.61-33.97,37.89,11.9-1.02,23.61-4.84,32.23-12.15,18.8-15.94,16.43-44.05,16.65-45.8.19-1.57-2-26.29.6-42.46-5.45-.02-10.35-.15-14.8-.37Z"/>
              <path class="cls-3" d="M1331.69,580.04c-.14,15.12-.82,49.99-.87,54.5-.05,5.53,5.89,28.55,24.07,38.82,8.62,4.87,20.67,7.56,32.96,7.35-21.2-.34-38.22-17.75-37.98-39.04l.7-62.19c-5.49.34-11.74.55-18.89.55Z"/>
              <path class="cls-3" d="M1443.75,574.7c2.58-9.21,2.2-23.55.96-37.1-9.81,10.17-16.08,23.78-16.81,38.85,4.56.23,9.65.36,15.33.37.16-.73.33-1.44.52-2.11Z"/>
            </g>
          </g>
          <text class="cls-15" transform="translate(890.28 607.09) scale(.84 1)"><tspan x="0" y="0">M</tspan><tspan class="cls-16" x="40.57" y="0">O</tspan><tspan x="70.2" y="0">VE BACK</tspan><tspan class="cls-18" x="260.55" y="0">W</tspan><tspan x="301.64" y="0">ARD</tspan></text>
          <text class="cls-15" transform="translate(1087.75 888.09) scale(.84 1)"><tspan class="cls-20" x="0" y="0">P</tspan><tspan x="27.68" y="0">AUSE</tspan></text>
          <line class="cls-12" x1="1237.85" y1="288.66" x2="1296.61" y2="288.66"/>
          <line class="cls-12" x1="1237.85" y1="581.66" x2="1296.61" y2="581.66"/>
          <line class="cls-12" x1="1225.85" y1="859.66" x2="1284.61" y2="859.66"/>
          <g>
            <text class="cls-14" transform="translate(1348.83 872.84) scale(.84 1)"><tspan x="0" y="0">ESC</tspan></text>
            <rect class="cls-12" x="1309.59" y="794.23" width="129" height="129" rx="31.81" ry="31.81"/>
          </g>
        </g>
      </g>
    </g>
  </g>
</svg>