<?xml version="1.0" encoding="UTF-8"?>
<svg id="Layer_2" data-name="Layer 2" xmlns="http://www.w3.org/2000/svg" xmlns:xlink="http://www.w3.org/1999/xlink" viewBox="0 0 6613.18 6656.99">
  <defs>
    <style>
      .cls-1 {
        fill: url(#Degradado_sin_nombre_25);
      }

      .cls-1, .cls-2, .cls-3 {
        stroke-width: 0px;
      }

      .cls-4 {
        clip-path: url(#clippath);
      }

      .cls-2 {
        fill: none;
      }

      .cls-3 {
        fill: #000;
      }

      .cls-5 {
        opacity: .44;
      }
    </style>
    <clipPath id="clippath">
      <rect class="cls-2" x="2589.51" y="2695.59" width="2437" height="1124"/>
    </clipPath>
    <linearGradient id="Degradado_sin_nombre_25" data-name="Degradado sin nombre 25" x1="3288.96" y1="2658.26" x2="3310.19" y2="3847.23" gradientUnits="userSpaceOnUse">
      <stop offset="0" stop-color="#000"/>
      <stop offset="1" stop-color="#353535"/>
    </linearGradient>
  </defs>
  <g id="Layer_1-2" data-name="Layer 1">
    <g>
      <rect class="cls-3" x="2589.51" y="2695.59" width="2437" height="1124"/>
      <g class="cls-5">
        <g class="cls-4">
          <path class="cls-1" d="M6613.18,3314.87c-269.44,1356.51-1442.72,2364.04-2816.92,2406.18-189.74,5.79-381.98-6.74-569.17-38.06-104.67-17.01-209.81-40.16-311.17-71.59-1045.75-319.93-1678.56-1420.45-1414.55-2491.56,174.99-695.22,844.8-1170.73,1554.14-1094.66,100.37,10.43,200.72,30.77,295.53,65.91,171.71,64.03,325.94,175.88,440.68,319.39,197.55,244.77,273.86,583.13,194.57,888.67-85.31,344.81-445.7,584.63-793.78,525.47-212.51-28.83-385.34-189.14-427.37-401.19-12.07-61.8-12.71-126.33-1.05-188.24,10.49-60.58,37.27-118.38,76.42-165.53,89.99-110,251.11-157.8,383.68-104.26,75.03,31.52,131.84,102.87,145.51,183.45,20.53,105.01-35.11,212.84-145.45,228.51-59.9,10.35-127.67-20.21-146.57-80.69-13.24-37.8-7.58-85.61,24.87-111.69,39.8-34.04,112.22-22.36,116.27,37.22,4.51,31.72-31.51,60.38-59.71,42.51-17.75-10.65-16.66-44.62,7.14-45.4,10.34-1.03,19.51,10.52,14,20.08-2.58,4.27-8.8,6-12.84,2.95-4.2-2.71-2.81-11.41,3.03-10.15-5.69-.67-6.87,6.94-2.75,9.79,9.91,5.93,17.14-8.5,10.5-15.89-9.49-11.58-29.2-1.48-28.63,12.72-.97,13.92,10.36,26.35,24.05,26.86,53.86,1.26,48.41-74.97,4.24-87.6-23.27-7.32-50.19-.83-68.31,15.22-34.75,30.35-30.84,86.59-5.9,121.86,26.96,38.36,73.26,50.13,117.61,42.43,96.45-16.73,140.98-112.38,120.11-203.21-17.39-87.64-93.24-158.33-181.5-168.05-152.68-23.55-306.68,82.79-338.36,235.19-7.02,33.61-9.89,68.79-9.05,103.13,5.35,204.82,156.78,382.98,357.63,416.99,332.46,61.39,664.7-171.36,718.21-508.02,68.52-395.16-140.16-797.65-503.53-963.17-74.91-34.41-155.91-58.01-237.31-70.3-608.65-99.62-1219.95,277.46-1401.54,871.62-59.46,195.27-74.8,403.82-61.86,606.96,46.99,724.53,540.49,1371.97,1226.73,1597.67,107.47,35.96,219.25,60.76,331.29,76.89,133.78,19.12,270.4,28.55,405.43,26.98,1234-11.23,2309.08-923.15,2511.66-2151.34l454.01,85.93ZM4174.7,401.08c1079.07,607.76,1567.21,1935.16,1159.93,3108.18-44.25,128.47-99.32,254.73-162.47,375.01-53,100.7-114.02,198.22-184.01,287.87-443.23,573.81-1215.3,822.21-1908.23,621.43-194.2-56.5-383.88-141.65-546.21-264.1-493.72-373.22-639.11-1080.1-339.96-1623.07,39.04-72.97,88.52-141.72,146.04-201.06,277.69-288.26,724.44-349.72,1070.49-151.01,296.46,164.68,401.47,558.28,231.55,852.5-95.62,171.28-300.27,255.72-488.41,204.39-41.44-11.54-82.01-28.72-118.32-52.01-112.96-71.53-165.07-221.57-123.11-348.92,16.03-50.41,44.41-98.21,88.51-128.38,72.14-51.41,177.41-51.29,247.55,3.97,56.1,44.26,71.38,131.22,33.79,192.47-11.6,19.94-30.28,35.49-51.61,43.91-43.07,16.92-103.2,2.79-121.27-43.71-9.89-25.38-5.08-58.4,15.69-77.02,30-28.53,92.15-4.32,73.63,40.81-5.12,12.8-20.57,19.33-33.24,13.69-16.79-4.88-14.59-35.12,4.47-31.69,7.03.95,10.95,11.13,4.62,15.58-4.06,2.94-10.77-.75-8.22-5.92-3.15,5.1,4.5,9.37,8.46,6.3,4.22-2.8,4.7-9.28,1.59-13.17-7.07-8.46-20.96-3.68-23.5,6.47-7.22,37.14,51.44,37.25,53.5-3.94,3.78-44.77-57.01-60.95-86.41-34.35-24.39,20.48-31.19,57.39-20.74,87.02,13.39,39.58,56.14,61.13,95.94,61.38,62.92,2.57,114.41-51.3,125.02-111.56,22.72-109.85-59.21-199.08-164.28-215.17-129.17-21.44-240.58,58.17-281.12,180.5-53.1,145.21,3.57,319.8,131.01,406.19,53.89,36.98,115.84,62.27,179.69,75.23,218.92,43.26,439.2-66.18,541.88-265.24,173.12-309.78,71.04-732.45-222.27-930.02-258.66-178.57-600.66-220.83-896.27-116.51-172.94,60.13-329.68,168.4-447.64,309.42-64.94,77.94-117.92,166.12-161.65,257.7-311.24,646.35-93.68,1441.99,496.71,1843.17,911.49,612.79,2154.08,385.79,2807.09-496.76,63.69-85.4,120.91-177.19,172.24-270.6,92.63-166.76,169.43-344.67,228.26-526.41C6129.27,2167.36,5585.03,714.55,4408.7,0l-234,401.08ZM860.4,1323.99c893.63-783.64,2236.96-830.85,3191.84-127.85,178.94,131.1,342.63,285.76,482.76,458.29,333.15,409.82,466.93,971.25,361.78,1489.81-78.43,402.84-297.41,775.21-609.53,1039.22-287.01,246.54-686.9,347.15-1056.03,270.83-286.67-56.96-551.66-217.48-735.16-446.61-26.88-33.34-52.1-71.07-73.54-108.18-67.26-115.55-106.44-247.69-116.11-381.1-17.71-246.63,71.29-497.74,240.75-677.09,84.77-91.15,186.94-160.88,307.9-193.09,204.76-56.63,435.5,2.34,588.75,150.79,107.05,99.93,161.76,232.97,145.18,380.27-16.54,139.05-101.99,277.5-232.68,333.4-144.1,62.26-344.54-12.11-388.77-170.21-22.96-85.94,13.59-185.48,89.46-232.37,45.43-27.38,105.43-26.96,150.81.58,43.22,25.38,71.43,70.98,59.92,122.18-12.33,60.38-77.93,100.84-129.81,56.62-46.7-36.66,0-119.57,48.19-76.93,9.6,9.71,9.09,26.88-1.18,36.05-9.39,10.39-31.01,3.19-28.46-11.85,1.05-10.24,17.26-13.42,18.01-1.58.06,5.3-7.95,7.62-9.16,1.9.1,2.5,2.97,4.1,5.29,3.52,2.4-.59,4.04-2.96,4.32-5.37-.49-12.75-18.14-10.14-19.78,1.25-3.46,16.97,20.71,25.39,31.59,14.17,16.99-14.08,9.75-41.62-9.22-50.17-51.24-24.26-86.74,50.16-53.38,87.51,31.41,39.97,92.81,40.58,126.91,3.76,33.59-33.29,44.15-86.6,26.15-130.45-28.31-66.12-105.3-103.27-174.96-92.62-71.3,9.66-127.63,67.58-154.95,132.1-64.38,157.73,40.37,306.82,188.79,360.59,289.28,101.56,534.78-187.19,522.53-464.84-3.22-97.38-35.02-193.64-91.01-273.26-67.22-94.47-159.66-171.02-263.46-221.66-301.51-143.68-636.11-64-859.08,181.48-203.13,212.86-304.19,518.11-272.07,811.42,10.77,106.69,39.3,212.67,82.52,310.64,71.6,163.53,188.93,303.21,322.23,419.65,432.68,380.27,1080.57,459.49,1592.96,199.73,236.03-117.36,434.42-301.07,598.04-506.8,444.63-560.6,564.79-1352.29,313.44-2022.99-91.63-250.32-232.98-481.18-408.71-680.55-144.5-167.24-308.76-318.94-486.91-449.27C3102.93,69.36,1604.61,115.04,564.84,966.48l295.56,357.51ZM600.71,4776.78c-447.15-1160.74,16.47-2497.02,1072.58-3139.83,115.39-70.63,237.72-132.62,362.5-184.8,104.57-43.61,213.3-79.63,323.97-103.82,714.28-160.03,1475.15,154.12,1879,767.39,106.46,162.76,193.47,341.74,238.86,531.91,144.39,604.42-190.8,1242.53-764.92,1469.1-76.27,31.2-157.9,52.44-239.77,61.27-396.42,44.02-779.64-195.23-920.63-570.41-124.3-317.13,43.8-687.87,360.93-805.63,182.07-70.67,393.24-4.45,505.77,155.82,24.11,34.56,43.84,72.85,57.35,112.86,43.4,128.31-10.96,279.2-124.94,351.06-44.25,28.57-96.37,47.2-149.45,42.16-88.13-6.66-169.19-74.29-188.28-161.88-15.23-70.1,28-146.93,95.74-170.02,21.56-7.93,45.79-7.92,67.56-.73,65.34,21.36,100.03,110.05,33.09,152.13-30.74,21.27-78.11.75-79.3-37.8-1.14-28.09,38.49-50.63,54.57-21.46,7.67,11.93-4.18,30.74-18.2,25.64-9.45-2.95-10.53-19.07,1-19.05,4.99.34,7.83,7.49,2.59,9.83,5.66-1.91,2.45-10.11-2.53-10.28-16.83,1.21-8.87,24.28,5.73,21.86,28.73-7.06,14.8-44.9-9.91-45.36-10.18-.64-19.83,4.37-26.9,11.44-36.59,40.36,18.76,96.16,63.63,79.1,33.88-10.73,58.32-45.06,57.34-80.97-2.66-74.17-85.87-125.91-154.42-101.55-38.35,12.3-71.56,39.19-92.38,73.9-68.51,110.78,15.88,254.8,128.28,295.02,116.45,46.59,248.36-13.61,323.46-107.19,71.15-87.04,96.33-209.47,65.33-317.89-18.14-63.08-49.88-122.31-90.9-173.27-141.37-173.8-380.39-230.77-585.48-143.22-329.44,127.69-518.19,518.96-417.12,859.42,86.37,303.59,323.24,555.57,617.08,664.82,171.35,64.61,360.65,81.72,540.8,48.71,99.36-18.41,196-52.39,287.64-94.92,648.85-298.49,984.58-1051.32,783.37-1739.31-314.82-1057.1-1416.18-1679.35-2477.88-1418.08-103.13,24.96-205.3,59-303.97,98.06-176.91,69.1-348.67,156.95-509,259.29C211.77,2161.4-287.98,3630.33,166.58,4935.78l434.13-159.01ZM3739.16,6191.81c-1236.02,30.7-2327.7-861-2570.8-2079.3-26.94-133.25-43.44-270.14-49.96-406.04-5.35-113.85-2.19-229.06,12.67-342.11,91.03-721.15,629.67-1331.02,1327.49-1513.8,195.69-51.02,401.99-75.08,603.63-53.01,613.67,67.82,1096.46,601.45,1113.8,1222.15,3.33,82.82-4.46,167.37-23.92,247.93-93.08,390.52-446.38,672.62-844.69,679.19-338.42,10.41-627.94-274.39-630.61-614.74-4.48-197.46,130.67-376.38,320.06-427.29,39.42-10.7,80.83-15.98,121.65-15.31,134.59,2.32,257.18,104.92,285.74,237.24,16.75,68.71,7.09,145.28-38.8,200.79-63.24,82.42-204.32,115.94-277.53,28.61-38.17-44.1-52.54-117.83-12-164.97,47.45-58.03,148.15-49.87,152.46,36.02.49,27.34-23.52,51.26-50.57,51.22-34.1,2.26-53.93-53.05-14.44-61.21,13.74-3.23,27.31,14.36,17.8,25.92-5.95,7.96-21.39,3.52-17.47-7.39,2-4.61,9.65-4.88,10.06.88.13-6-8.62-5.75-10.47-1.08-2.21,4.57.65,10.4,5.3,12.15,10.36,3.66,19.9-7.59,16.95-17.62-5.24-23.4-38.58-18.08-45.62,1.48-11.97,31.59,22.28,61.22,52.7,51.05,30.57-6.88,49.59-39.88,43.39-70.25-5.37-40.96-44.28-73.3-85.26-71.28-61.87-.21-116.24,53.84-117.22,116.52-1.49,40.51,12.4,81.07,37.78,112.55,80.33,102.42,243.47,71.21,319.1-21.67,82.96-94.57,71.37-239.93,9.34-342.77-57.25-96.88-163.13-162.19-274.93-169.53-65.08-4.17-131.18,5.85-192.68,27.46-210.26,75.11-344.42,282.29-332.05,506.25,7.79,355.38,309.49,666.69,661.85,686.19,312.92,20.94,628.58-118.18,830.15-359.61,118.38-140.48,198.46-314.05,228.61-495.92,16.44-100.38,17.41-203.45,8.69-304.68-59.24-715.85-649.04-1288.83-1360.04-1331.11-1094.37-59.6-2048.69,773.28-2164.01,1867.71-11.59,106.16-14.38,214.5-11.28,321.22,4.67,191.01,28.62,383.5,69.96,570.06,299.63,1351.14,1503.04,2321.98,2876.78,2333.26l-1.6-465.18Z"/>
        </g>
      </g>
    </g>
  </g>
</svg>