<?xml version="1.0" encoding="UTF-8"?>
<svg id="Layer_2" data-name="Layer 2" xmlns="http://www.w3.org/2000/svg" viewBox="0 0 117.03 197.43">
  <defs>
    <style>
      .cls-1 {
        fill: #aaa;
      }

      .cls-1, .cls-2, .cls-3, .cls-4, .cls-5 {
        stroke-width: 0px;
      }

      .cls-2 {
        fill: #c9c9c9;
      }

      .cls-3 {
        fill: #e3e3e3;
      }

      .cls-4 {
        fill: #666;
      }

      .cls-5 {
        fill: #ff2e2e;
      }
    </style>
  </defs>
  <g id="Layer_1-2" data-name="Layer 1">
    <g>
      <g>
        <path class="cls-1" d="M59.35,19.32s-7.36-2.01-7.81,7.9c-.44,9.91-.39,24.75,6.33,25.33,6.72.58,9.04-6.21,8.86-17.26-.18-11.04-3.26-14.99-7.38-15.97Z"/>
        <path class="cls-4" d="M59.56,11.93c-1.06-.37-2.18-.48-3.27-.23-1.46.35-2.73,1.32-3.62,2.53-2.06,2.79-3.93,6.59-4.65,9.93-.86,3.95-1.25,7.28-1.7,11.07-.76,6.38-.46,12.84.34,19.21.4,3.2.89,6.41,1.51,9.58.76,3.88,2.21,7.72,4.09,11.17,1.08,1.99,3.13,6.02,5.86,6.02.13,0,.26-.01.38-.04,6.95-1.38,11.59-10.62,13.05-26.03.64-6.75.92-13.6.03-20.34-.45-3.39-1.21-6.76-2.41-9.96-.75-2-1.32-3.48-2.62-5.7-1.13-1.94-2.25-3.62-3.88-5.25-.87-.87-1.95-1.58-3.1-1.98ZM65.16,52.99c-1.73,1.76-3.92,2.65-6.52,2.65h0c-.33,0-.67-.02-1.03-.05-8.92-.78-9.4-15.78-8.82-28.76.45-9.94,7.01-10.72,9.01-10.72,1.19,0,2.05.22,2.21.26,6.15,1.47,9.27,7.65,9.46,18.86.15,8.96-1.22,14.6-4.32,17.75Z"/>
        <path class="cls-3" d="M113.98,96.74c-39.35-.11-51.38-6.19-55.02-9.61-3.67,3.45-15.84,9.59-55.9,9.61-.14,15.12-.82,49.99-.87,54.5-.05,5.53,5.89,28.55,24.07,38.82,18.19,10.27,51.67,10.87,70.48-5.07,18.8-15.94,16.43-44.05,16.65-45.8.19-1.57-2-26.29.6-42.46Z"/>
        <path class="cls-3" d="M46.13,67.58c-2.02-7.24-2.6-15.11-2.88-22.39-.26-7.06.1-14.26,1.91-21.11,1.43-5.43,3.84-10.73,7.94-14.66.99-.95,1.95-1.54,2.86-1.89V.02C35.79.71,16.74,9.52,16.74,9.52-9.42,23.45,2.84,85.47,3.05,90.11c.02.54.03,1.73.02,3.4,42.84-.03,52.21-7.08,53.99-9.05-4.35-1.01-6.94-6.66-8.58-10.31-.95-2.1-1.72-4.31-2.35-6.58Z"/>
        <path class="cls-5" d="M113.05,30.11c-2.46-16.48-18.49-23.94-42.85-29-3.39-.7-6.86-1.04-10.34-1.11v7.4c1.99.62,3.26,2.06,3.26,2.06,10.98,9.69,12.98,27.18,11.18,46.16-1.67,17.61-6.99,26.11-13.73,28.44v.05c.87,1.25,8.27,9.34,54.02,9.4.16-.73.33-1.44.52-2.11,4.29-15.31.4-44.82-2.05-61.29Z"/>
      </g>
      <g>
        <path class="cls-2" d="M3.07,93.52c7.16,0,13.38-.21,18.79-.55C20.97,75.56,12.69,60.1.09,49.68c-.7,19.13,2.85,37.96,2.96,40.44.02.54.03,1.73.02,3.4Z"/>
        <path class="cls-2" d="M99.18,96.36l-.71,62.89c-.22,19.58-14.99,35.61-33.97,37.89,11.9-1.02,23.61-4.84,32.23-12.15,18.8-15.94,16.43-44.05,16.65-45.8.19-1.57-2-26.29.6-42.46-5.45-.02-10.35-.15-14.8-.37Z"/>
        <path class="cls-2" d="M3.05,96.74c-.14,15.12-.82,49.99-.87,54.5-.05,5.53,5.89,28.55,24.07,38.82,8.62,4.87,20.67,7.56,32.96,7.35-21.2-.34-38.22-17.75-37.98-39.04l.7-62.19c-5.49.34-11.74.55-18.89.55Z"/>
        <path class="cls-2" d="M115.11,91.4c2.58-9.21,2.2-23.55.96-37.1-9.81,10.17-16.08,23.78-16.81,38.85,4.56.23,9.65.36,15.33.37.16-.73.33-1.44.52-2.11Z"/>
      </g>
    </g>
  </g>
</svg>