<?xml version="1.0" encoding="UTF-8"?>
<svg xmlns="http://www.w3.org/2000/svg" xmlns:xlink="http://www.w3.org/1999/xlink" viewBox="0 0 134.18 154.93">
  <defs>
    <style>
      .cls-1 {
        fill: #46525b;
        mix-blend-mode: multiply;
      }

      .cls-1, .cls-2 {
        opacity: .5;
        stroke-width: 0px;
      }

      .cls-1, .cls-2, .cls-3, .cls-4 {
        fill-rule: evenodd;
      }

      .cls-2 {
        fill: #c6c6c6;
        mix-blend-mode: screen;
      }

      .cls-3 {
        fill: none;
        stroke: #fff;
        stroke-width: 3px;
      }

      .cls-3, .cls-4 {
        stroke-miterlimit: 10;
      }

      .cls-4 {
        fill: #fff;
        stroke: url(#linear-gradient);
      }

      .cls-5 {
        isolation: isolate;
      }
    </style>
    <linearGradient id="linear-gradient" x1="31.07" y1="74.51" x2="103.08" y2="74.51" gradientUnits="userSpaceOnUse">
      <stop offset="0" stop-color="#231f20"/>
      <stop offset="1" stop-color="#fff"/>
    </linearGradient>
  </defs>
  <g class="cls-5">
    <g id="Layer_2" data-name="Layer 2">
      <g id="Layer_1-2" data-name="Layer 1">
        <g>
          <polygon class="cls-3" points="132.68 115.33 132.68 39.6 67.09 1.73 1.5 39.6 1.5 115.33 67.09 153.2 132.68 115.33"/>
          <g>
            <path class="cls-4" d="M38.56,53.85l7.56-7.56,8.21,4.78c1.54-.83,3.17-1.51,4.88-2.02l2.36-9.85,10.85.67,2.2,9.18c1.71.52,3.34,1.2,4.89,2.03l8.43-4.73,7.73,6.97-5.3,8.64c.82,1.53,1.5,3.16,2.01,4.86l9.85,2.36.35,3.82-.35,6.87-9.85,2.36c-.51,1.7-1.19,3.32-2.01,4.86l4.83,7.88-5.64,6.87-2.2,1.04-7.89-4.89c-1.54.83-3.17,1.5-4.88,2.02l-2.49,9.27-7.76.57-2.93-.57-2.21-9.28c-1.7-.51-3.32-1.19-4.86-2.01l-8.64,5.3-6.74-7.85,4.5-8.3c-.83-1.55-1.52-3.19-2.04-4.9l-9.85-2.36.47-10.05,9.37-2.94c.52-1.72,1.2-3.37,2.03-4.92l-4.89-8.1h0ZM66.91,60.28c7.87,0,14.24,6.38,14.24,14.24s-6.38,14.24-14.24,14.24-14.24-6.38-14.24-14.24,6.38-14.24,14.24-14.24h0Z"/>
            <path class="cls-1" d="M41.5,94.34l1.25-2.31.73-1.34v-3.56l-1.56,2.88-2.94,5.42,1.18,1.38,1.34-2.47h0ZM91.13,91.89l1.36,2.22,1.46,2.37,1.25-1.52-3.2-5.21-1.63-2.66v3.56l.77,1.25h0ZM61.57,42.76l10.85.67,2.2,9.18,4.89,2.03,8.43-4.73,3.4,3.07,2.92,2.64,1.41-2.29-7.73-6.97-8.43,4.73c-1.54-.83-3.18-1.51-4.89-2.03l-2.2-9.18-10.85-.67-2.36,9.85c-1.7.51-3.34,1.2-4.88,2.02l-8.21-4.78-7.56,7.56,1.34,2.22,2.89-2.89,3.32-3.33,8.21,4.78,4.88-2.02,2.36-9.85h0ZM41.42,66.88l-9.37,2.94-.17,3.69,9.54-3.07,1.37-3.33.66-1.6v-3.56c-.6,1.12-1.13,2.29-1.57,3.51-.17.47-.32.94-.47,1.42h0ZM91.01,67.09l1.37,3.29,10.2,2.62-.35-3.82-9.85-2.36c-.15-.48-.3-.96-.48-1.43-.43-1.19-.95-2.33-1.54-3.43v3.56l.65,1.56h0Z"/>
            <g>
              <path class="cls-2" d="M41.91,65.5c.44-1.22.94-2.42,1.54-3.55l-4.89-8.1.45,6.36,2.9,5.29Z"/>
              <path class="cls-2" d="M91.88,65.43l3.4-6.48.38-5.63-5.3,8.64c.59,1.11,1.08,2.28,1.52,3.47Z"/>
              <path class="cls-2" d="M66.91,60.28c-7.87,0-14.24,6.38-14.24,14.24,0,1.1.15,2.15.39,3.18,1.45-6.33,7.09-11.06,13.86-11.06s12.41,4.73,13.86,11.06c.24-1.03.39-2.08.39-3.18,0-7.87-6.38-14.24-14.24-14.24Z"/>
              <path class="cls-2" d="M87.35,102.87l-7.89-4.89c-1.54.83-3.17,1.5-4.88,2.02l-2.49,9.27-7.76.57-2.93-.57-2.21-9.28c-1.7-.51-3.32-1.19-4.86-2.01l-8.64,5.3-6.74-7.85.7,5.79,6.04,8.42,8.64-5.3c1.54.82,3.16,1.5,4.86,2.01l2.21,9.28,2.93.57,7.76-.57,2.49-9.27c1.7-.51,3.34-1.19,4.88-2.02l7.89,4.89,2.2-1.04,5.13-7.63.51-5.6-5.64,6.87-2.2,1.04Z"/>
              <path class="cls-2" d="M41.94,89.97l1.54-2.84c-.83-1.55-1.52-3.19-2.04-4.9l-9.85-2.36,2.09,5.58,7.76,3.13c.14.47.33.92.49,1.38Z"/>
              <path class="cls-2" d="M90.36,87.08l1.61,2.63c.13-.38.29-.74.4-1.12l8.1-3.09,1.75-5.63-9.85,2.36c-.51,1.7-1.19,3.32-2.01,4.86Z"/>
            </g>
          </g>
        </g>
      </g>
    </g>
  </g>
</svg>